<svg xmlns="http://www.w3.org/2000/svg" data-name="Layer 1" viewBox="0 0 1122.58 2435.74"><path d="M606.22 2435.74c-249.284.985-70.999 0-394.06 0-1.06-111.34.15-222.68-2-334-2-104.56-.3-209.19-.75-313.79-.28-62.9 1.53-125.59 10.62-188 11.92-81.69 33.57-160.2 75-232.24 60.093-104.62 147.027-177.243 260.8-217.87 35.31-12.6 70.62-25.37 103.61-43.72 32.13-17.88 53.64-43.09 61.61-79.94 6.32-29.19 5.65-58.54 4.86-87.83-2.56-95.21-69.16-161.2-163.42-168.47-35.55-2.74-71.2-4-106.66-8.21C251.815 737.653 73.229 598.605 18.41 421.64c-7.43-25.13-11-51.06-18.23-76.17C.18 233.857.12 122.247 0 10.64-.02 2.68 1.13-.08 10.14 0c216.251-1.33 127.128.27 375.95.27.9 65.62 1.803 131.237 2.71 196.85a233.49 233.49 0 0013.32 75.78c13 36.5 36.8 62.55 73.33 77 45.94 18.13 94.58 18.79 142.64 22.4 34.73 2.6 69.52 4.89 103.44 12.54 135.26 30.5 239.09 106.54 313.9 222.18 51.1 79 78.81 166.31 84.89 260.34 0 23.81-.37 47.62 0 71.42.13 8.82-2.29 18 2.26 26.46v106c-6.06 14.87-5.31 30.92-7.62 46.39-13.76 92-44.34 177.2-102 251.13-51.15 65.56-115.52 111.6-198.15 129.34-24.31 5.23-48.67 10.3-72.8 16.26-53.45 13.19-92.66 43.71-114.13 95.39-12 28.8-17.62 59.31-18.28 89.94-1.33 62-6.93 123.79-5.71 185.81.32 16.26 1.9 32.51 1.92 48.77.24 167.153.377 334.31.41 501.47z" fill="#c3cad9"/></svg>